<svg xmlns="http://www.w3.org/2000/svg" width="320" height="580" viewBox="0 0 320 580">
  <rect width="320" height="580" rx="20" fill="#FBF7F0"/>
  <rect x="0" y="0" width="320" height="30" fill="#E8DCC8" rx="20"/>
  <rect x="0" y="15" width="320" height="15" fill="#E8DCC8"/>
  <!-- Title -->
  <text x="160" y="55" font-family="serif" font-size="18" font-weight="bold" fill="#201A14" text-anchor="middle">Learn</text>
  <text x="160" y="72" font-family="sans-serif" font-size="9" fill="#6E6152" text-anchor="middle">Your coffee education journey</text>
  <!-- Step map -->
  <g transform="translate(30, 86)">
    <circle cx="0" cy="0" r="10" fill="#C75B3C"/>
    <text x="0" y="4" font-family="sans-serif" font-size="8" fill="#fff" text-anchor="middle">1</text>
    <line x1="16" y1="0" x2="28" y2="0" stroke="#C75B3C" stroke-width="2"/>
    <circle cx="36" cy="0" r="10" fill="#C75B3C"/>
    <text x="36" y="4" font-family="sans-serif" font-size="8" fill="#fff" text-anchor="middle">✓</text>
    <line x1="52" y1="0" x2="64" y2="0" stroke="#E7DDCE" stroke-width="2"/>
    <circle cx="72" cy="0" r="10" fill="none" stroke="#C75B3C" stroke-width="2"/>
    <text x="72" y="4" font-family="sans-serif" font-size="8" fill="#C75B3C" text-anchor="middle">3</text>
    <line x1="88" y1="0" x2="100" y2="0" stroke="#E7DDCE" stroke-width="2"/>
    <circle cx="108" cy="0" r="10" fill="none" stroke="#E7DDCE" stroke-width="2"/>
    <text x="108" y="4" font-family="sans-serif" font-size="7" fill="#B8A895" text-anchor="middle">4</text>
    <line x1="124" y1="0" x2="136" y2="0" stroke="#E7DDCE" stroke-width="2"/>
    <circle cx="144" cy="0" r="10" fill="none" stroke="#E7DDCE" stroke-width="2"/>
    <text x="144" y="4" font-family="sans-serif" font-size="7" fill="#B8A895" text-anchor="middle">5</text>
    <line x1="160" y1="0" x2="172" y2="0" stroke="#E7DDCE" stroke-width="2"/>
    <circle cx="180" cy="0" r="10" fill="none" stroke="#E7DDCE" stroke-width="2"/>
    <text x="180" y="4" font-family="sans-serif" font-size="7" fill="#B8A895" text-anchor="middle">6</text>
    <line x1="196" y1="0" x2="208" y2="0" stroke="#E7DDCE" stroke-width="2"/>
    <circle cx="216" cy="0" r="10" fill="none" stroke="#E7DDCE" stroke-width="2"/>
    <text x="216" y="4" font-family="sans-serif" font-size="7" fill="#B8A895" text-anchor="middle">7</text>
    <line x1="232" y1="0" x2="244" y2="0" stroke="#E7DDCE" stroke-width="2"/>
    <circle cx="252" cy="0" r="10" fill="none" stroke="#E7DDCE" stroke-width="2"/>
    <text x="252" y="4" font-family="sans-serif" font-size="7" fill="#B8A895" text-anchor="middle">8</text>
  </g>
  <!-- Chapter header -->
  <text x="24" y="124" font-family="sans-serif" font-size="10" fill="#C75B3C">Extraction Principles</text>
  <!-- Cards -->
  <rect x="12" y="134" width="296" height="52" rx="10" fill="#fff"/>
  <text x="24" y="154" font-family="sans-serif" font-size="12" font-weight="bold" fill="#201A14">What is Extraction?</text>
  <text x="24" y="172" font-family="sans-serif" font-size="9" fill="#6E6152">Understand how water dissolves coffee compounds to create flavor. Extraction yield…</text>
  <text x="24" y="182" font-family="sans-serif" font-size="9" fill="#C75B3C">Read more</text>
  <circle cx="300" cy="168" r="4" fill="#F3D3C4"/>
  <rect x="12" y="196" width="296" height="44" rx="10" fill="#fff"/>
  <text x="24" y="216" font-family="sans-serif" font-size="12" font-weight="bold" fill="#201A14">Under vs Over Extraction</text>
  <text x="24" y="232" font-family="sans-serif" font-size="9" fill="#6E6152">Learn to identify sour (under) vs bitter (over) extraction…</text>
  <text x="24" y="240" font-family="sans-serif" font-size="9" fill="#C75B3C">Read more</text>
  <!-- Troubleshoot -->
  <text x="24" y="268" font-family="sans-serif" font-size="10" fill="#C75B3C">Tools</text>
  <rect x="12" y="278" width="296" height="56" rx="10" fill="#fff"/>
  <text x="24" y="298" font-family="sans-serif" font-size="12" font-weight="bold" fill="#201A14">Taste Diagnosis</text>
  <text x="24" y="318" font-family="sans-serif" font-size="9" fill="#6E6152">How was your cup? Pick what you tasted…</text>
  <rect x="24" y="326" width="40" height="16" rx="8" fill="#C75B3C"/>
  <text x="44" y="337" font-family="sans-serif" font-size="7" fill="#fff" text-anchor="middle">Sour</text>
  <rect x="68" y="326" width="44" height="16" rx="8" fill="#F3D3C4"/>
  <text x="90" y="337" font-family="sans-serif" font-size="7" fill="#C75B3C" text-anchor="middle">Bitter</text>
  <rect x="116" y="326" width="50" height="16" rx="8" fill="#F3D3C4"/>
  <text x="141" y="337" font-family="sans-serif" font-size="7" fill="#C75B3C" text-anchor="middle">Weak</text>
</svg>
