<svg xmlns="http://www.w3.org/2000/svg" width="320" height="580" viewBox="0 0 320 580">
  <rect width="320" height="580" rx="20" fill="#FBF7F0"/>
  <rect x="0" y="0" width="320" height="30" fill="#E8DCC8" rx="20"/>
  <rect x="0" y="15" width="320" height="15" fill="#E8DCC8"/>
  <!-- Tabs -->
  <rect x="12" y="44" width="90" height="28" rx="14" fill="#C75B3C"/>
  <text x="57" y="63" font-family="sans-serif" font-size="10" fill="#fff" text-anchor="middle">Brews</text>
  <rect x="106" y="44" width="80" height="28" rx="14" fill="none" stroke="#E7DDCE" stroke-width="1"/>
  <text x="146" y="63" font-family="sans-serif" font-size="10" fill="#6E6152" text-anchor="middle">Beans</text>
  <!-- Streak banner -->
  <rect x="12" y="82" width="296" height="40" rx="10" fill="#F3D3C4"/>
  <text x="28" y="101" font-family="serif" font-size="20" font-weight="bold" fill="#C75B3C">5</text>
  <text x="52" y="98" font-family="sans-serif" font-size="11" fill="#201A14">day streak</text>
  <text x="160" y="98" font-family="sans-serif" font-size="11" fill="#C75B3C">Keep it going!</text>
  <text x="290" y="101" font-family="sans-serif" font-size="16" fill="#C75B3C" text-anchor="end">🔥</text>
  <!-- Heatmap -->
  <rect x="12" y="132" width="296" height="80" rx="8" fill="#fff"/>
  <text x="160" y="152" font-family="sans-serif" font-size="8" fill="#6E6152" text-anchor="middle">Jun Jul</text>
  <!-- Heatmap grid simplified -->
  <g fill="#E7DDCE">
    <rect x="20" y="160" width="18" height="8" rx="2"/>
    <rect x="40" y="160" width="18" height="8" rx="2"/>
    <rect x="60" y="160" width="18" height="8" rx="2" fill="#F3D3C4"/>
    <rect x="80" y="160" width="18" height="8" rx="2"/>
    <rect x="100" y="160" width="18" height="8" rx="2" fill="#C75B3C"/>
    <rect x="120" y="160" width="18" height="8" rx="2" fill="#F3D3C4"/>
    <rect x="140" y="160" width="18" height="8" rx="2"/>
    <rect x="160" y="160" width="18" height="8" rx="2"/>
    <rect x="180" y="160" width="18" height="8" rx="2" fill="#F3D3C4"/>
    <rect x="200" y="160" width="18" height="8" rx="2"/>
    <rect x="220" y="160" width="18" height="8" rx="2" fill="#C75B3C"/>
    <rect x="240" y="160" width="18" height="8" rx="2" fill="#F3D3C4"/>
    <rect x="260" y="160" width="18" height="8" rx="2"/>
  </g>
  <!-- Analytics card -->
  <rect x="12" y="220" width="296" height="60" rx="10" fill="#fff"/>
  <text x="24" y="240" font-family="sans-serif" font-size="9" fill="#6E6152">This Week</text>
  <text x="24" y="265" font-family="serif" font-size="22" font-weight="bold" fill="#C75B3C">8</text>
  <text x="120" y="245" font-family="sans-serif" font-size="9" fill="#6E6152">Method</text>
  <text x="120" y="262" font-family="sans-serif" font-size="11" fill="#201A14">V60</text>
  <text x="220" y="245" font-family="sans-serif" font-size="9" fill="#6E6152">Avg rating</text>
  <text x="220" y="262" font-family="sans-serif" font-size="11" fill="#201A14">4.2 ★</text>
  <!-- Log entry -->
  <rect x="12" y="290" width="296" height="64" rx="10" fill="#fff"/>
  <text x="24" y="310" font-family="sans-serif" font-size="12" font-weight="bold" fill="#201A14">Hario V60</text>
  <text x="24" y="326" font-family="sans-serif" font-size="9" fill="#6E6152">09 Jul, 08:30 · 31.3 g : 500 ml</text>
  <text x="24" y="342" font-family="sans-serif" font-size="9" fill="#C75B3C">1:16.7 ★★★★★</text>
  <text x="290" y="318" font-family="sans-serif" font-size="10" fill="#6E6152" text-anchor="end">✕</text>
  <!-- Second entry -->
  <rect x="12" y="364" width="296" height="56" rx="10" fill="#fff"/>
  <text x="24" y="384" font-family="sans-serif" font-size="12" font-weight="bold" fill="#201A14">Chemex</text>
  <text x="24" y="400" font-family="sans-serif" font-size="9" fill="#6E6152">08 Jul, 07:15 · 34.5 g : 550 ml</text>
  <text x="24" y="412" font-family="sans-serif" font-size="9" fill="#C75B3C">1:15.9 ★★★★★</text>
</svg>
